# AST/ASF file generated using VICON BodyLanguage
# -----------------------------------------------
:version 1.10
:name VICON
:units
  mass 1.0
  length 0.45
  angle deg
:documentation
   .ast/.asf automatically generated from VICON data using
   VICON BodyBuilder and BodyLanguage model FoxedUp or BRILLIANT.MOD
:root
   order TX TY TZ RX RY RZ
   axis XYZ
   position 0 0 0  
   orientation 0 0 0 
:bonedata
  begin
     id 1 
     name lhipjoint
     direction 0.61886 -0.69539 0.365302 
     length 2.20474 
     axis 0 0 0  XYZ
  end
  begin
     id 2 
     name lfemur
     direction 0.34202 -0.939693 0  
     length 6.65149  
     axis 0 0 20  XYZ
    dof rx ry rz
    limits (-160.0 20.0)
           (-70.0 70.0)
           (-60.0 70.0)
  end
  begin
     id 3 
     name ltibia
     direction 0.34202 -0.939693 0   
     length 6.35814   
     axis 0 0 20   XYZ
    dof rx
    limits (-10.0 170.0)
  end
  begin
     id 4 
     name lfoot
     direction 0.101224 -0.278109 0.955201   
     length 2.18766   
     axis -90 7.62852e-016 20   XYZ
    dof rx rz
    limits (-45.0 90.0)
           (-70.0 20.0)
  end
  begin
     id 5 
     name ltoes
     direction 1.53524e-011 -4.21877e-011 1   
     length 1.09206   
     axis -90 7.62852e-016 20   XYZ
    dof rx
    limits (-90.0 20.0)
  end
  begin
     id 6 
     name rhipjoint
     direction -0.600207 -0.708087 0.371972   
     length 2.1652  
     axis 0 0 0  XYZ 
  end
  begin
     id 7 
     name rfemur
     direction -0.34202 -0.939693 0   
     length 6.54691   
     axis 0 0 -20   XYZ
    dof rx ry rz
    limits (-160.0 20.0)
           (-70.0 70.0)
           (-70.0 60.0)
  end
  begin
     id 8 
     name rtibia
     direction -0.34202 -0.939693 0   
     length 6.37474   
     axis 0 0 -20   XYZ
    dof rx
    limits (-10.0 170.0)
 end
 begin
     id 9 
     name rfoot
     direction -0.111266 -0.3057 0.945604   
     length 2.00903  
     axis -90 -7.62852e-016 -20   XYZ
    dof rx rz
    limits (-45.0 90.0)
           (-20.0 70.0)
  end
  begin
     id 10 
     name rtoes
     direction -1.5362e-011 -4.21913e-011 1   
     length 1.00221   
     axis -90 -7.62852e-016 -20   XYZ
    dof rx
    limits (-90.0 20.0)
  end
  begin
     id 11 
     name lowerback
     direction -0.0224561 0.999731 -0.00577314   
     length 2.10409   
     axis 0 0 0   XYZ
    dof rx ry rz
    limits (-20.0 45.0)
           (-30.0 30.0)
           (-30.0 30.0)
  end
  begin
     id 12 
     name upperback
     direction 0.0213126 0.999185 -0.0342817   
     length 2.09783   
     axis 0 0 0   XYZ
    dof rx ry rz
    limits (-20.0 45.0)
           (-30.0 30.0)
           (-30.0 30.0)
  end
  begin
     id 13 
     name thorax
     direction 0.0312356 0.999036 -0.0308451   
     length 2.09788   
     axis 0 0 0   XYZ
    dof rx ry rz
    limits (-20.0 45.0)
           (-30.0 30.0)
           (-30.0 30.0)
  end
  begin
     id 14 
     name lowerneck
     direction -0.0114419 0.996481 0.0830329   
     length 1.38575   
     axis 0 0 0   XYZ
    dof rx ry rz
    limits (-20.0 45.0)
           (-30.0 30.0)
           (-30.0 30.0)
  end
  begin
     id 15 
     name upperneck
     direction -0.0075675 0.996187 -0.0869092   
     length 1.39401   
     axis 0 0 0   XYZ
    dof rx ry rz
    limits (-20.0 45.0)
           (-30.0 30.0)
           (-30.0 30.0)
  end
  begin
     id 16
     name head
     direction -0.00222073 0.999264 -0.0382974  
     length 1.3964  
     axis 0 0 0   XYZ
    dof rx ry rz
    limits (-20.0 45.0)
           (-30.0 30.0)
           (-30.0 30.0)
  end
  begin
     id 17 
     name lclavicle
     direction 0.965962 0.222138 0.132556  
     length 2.81514  
     axis 0 0 0   XYZ
    dof ry rz
    limits (-20.0 10.0)
           (0.0 20.0)
  end
  begin
     id 18 
     name lhumerus
     direction 1 -4.48972e-011 7.03471e-018   
     length 4.47366   
     axis 180 -30 -90   XYZ
    dof rx ry rz
    limits (-60.0 90.0)
           (-90.0 90.0)
           (-90.0 90.0)
  end
  begin
     id 19
     name lradius
     direction 1 -4.48951e-011 -6.22192e-028   
     length 3.19948   
     axis 180 -30 -90   XYZ
    dof rx
    limits (-10.0 170.0)
  end
  begin
     id 20
     name lwrist
     direction 1 -4.48967e-011 -1.24264e-027   
     length 1.59974   
     axis 1.40095e-015 90 90   XYZ
    dof ry
    limits (-180.0 0.0)
 end
  begin
     id 21 
     name lhand
     direction 1 -4.4897e-011 -2.48528e-027   
     length 0.492667   
     axis 1.58582e-015 90 90   XYZ
    dof rx rz
    limits (-90.0 90.0)
           (-45.0 45.0)
  end
  begin
     id 22 
     name lfingers
     direction 1 -4.48996e-011 -4.97056e-027   
     length 0.397201   
     axis 3.17164e-015 90 90   XYZ
    dof rx
    limits (0.0 90.0)
  end
  begin
     id 23
     name lthumb
     direction 0.707107 -6.34981e-011 0.707107   
     length 0.570303   
     axis -90 45 2.85299e-015   XYZ
    dof rx rz
    limits (-45.0 45.0)
           (-45.0 45.0)
  end
  begin
     id 24 
     name rclavicle
     direction -0.961164 0.229034 0.153972   
     length 3.09348  
     axis 0 0 0   XYZ 
    dof ry rz
    limits (-10.0 20.0)
           (-20.0 0.0)
  end
  begin
     id 25 
     name rhumerus
     direction -1 -4.48971e-011 -9.06263e-028  
     length 4.3269   
     axis 180 30 90   XYZ
    dof rx ry rz
    limits (-90.0 60.0)
           (-90.0 90.0)
           (-90.0 90.0)
  end
  begin
     id 26 
     name rradius
     direction -1 -4.48953e-011 1.44659e-027   
     length 3.1896   
     axis 180 30 90   XYZ
    dof rx
    limits (-10.0 170.0)
  end
  begin
     id 27 
     name rwrist
     direction -1 -4.48988e-011 -1.24264e-027   
     length 1.5948   
     axis 1.40095e-015 -90 -90   XYZ
    dof ry
    limits (-180.0 0.0)
  end
  begin
     id 28
     name rhand
     direction -1 -4.49033e-011 -2.48528e-027   
     length 0.464496   
     axis 1.58582e-015 -90 -90   XYZ
    dof rx rz
    limits (-90.0 90.0)
           (-45.0 45.0)
  end
  begin
     id 29
     name rfingers
     direction -1 -4.48905e-011 -4.97056e-027   
     length 0.374489   
     axis 3.17164e-015 -90 -90   XYZ
    dof rx
    limits (0.0 90.0)
  end
  begin
     id 30
     name rthumb
     direction -0.707107 -6.34909e-011 0.707107   
     length 0.537693   
     axis -90 -45 -2.85299e-015   XYZ
    dof rx rz
    limits (-45.0 45.0)
           (-45.0 45.0)
  end
:hierarchy
  begin
    root lhipjoint rhipjoint lowerback
    lhipjoint lfemur
    lfemur ltibia
    ltibia lfoot
    lfoot ltoes
    rhipjoint rfemur
    rfemur rtibia
    rtibia rfoot
    rfoot rtoes
    lowerback upperback
    upperback thorax
    thorax lowerneck lclavicle rclavicle
    lowerneck upperneck
    upperneck head
    lclavicle lhumerus
    lhumerus lradius
    lradius lwrist
    lwrist lhand lthumb
    lhand lfingers
    rclavicle rhumerus
    rhumerus rradius
    rradius rwrist
    rwrist rhand rthumb
    rhand rfingers
  end

#!OML:ASF G:\acrobat\cartwheel_test 2\Patient 1\Session 2\acrobat4.ASF
:FULLY-SPECIFIED
:DEGREES
360
root 9.7906 14.697 11.1466 56.2712 209.32 338.582
lowerback 22.4918 1.12611 3.84143
upperback 7.43845 1.46055 8.28542
thorax -4.4811 0.155351 6.50353
lowerneck -12.9288 -7.43723 -2.32887
upperneck -4.72103 -9.8423 7.15324
head 1.19859 -4.89772 2.1629
rclavicle 2.22639e-014 7.23576e-014
rhumerus 38.3796 -18.097 -38.2408
rradius 25.1053
rwrist 7.77458
rhand -24.1864 -47.2746
rfingers 7.12502
rthumb 2.2973 -77.242
lclavicle 2.22639e-014 7.23576e-014
lhumerus 57.4789 50.2546 21.1053
lradius 44.2816
lwrist -151.44
lhand -16.1898 -11.4674
lfingers 7.12502
lthumb 10.0171 18.2743
rfemur -82.3088 -12.6721 14.2243
rtibia 59.5344
rfoot -16.1062 -18.2407
rtoes -2.75275
lfemur -50.6721 7.85732 -46.1968
ltibia 50.7047
lfoot -28.5612 2.88581
ltoes -18.127
361
root 9.81864 14.5968 10.9502 57.3832 209.159 337.968
lowerback 23.4524 1.33082 4.30129
upperback 7.46253 1.88585 8.26002
thorax -4.9575 0.355998 6.11376
lowerneck -12.9475 -7.42544 -1.03919
upperneck -5.28564 -9.98224 6.36185
head 0.894105 -5.02188 1.69463
rclavicle -1.59028e-014 -4.37326e-014
rhumerus 38.5082 -17.6052 -36.0621
rradius 25.7938
rwrist 3.9547
rhand -24.0998 -47.9805
rfingers 7.12502
rthumb 2.38101 -77.947
lclavicle -1.59028e-014 -4.37326e-014
lhumerus 59.4249 50.1827 23.8024
lradius 44.2425
lwrist -148.561
lhand -15.4734 -10.9229
lfingers 7.12502
lthumb 10.7082 18.7842
rfemur -84.3878 -13.3334 15.8473
rtibia 61.9322
rfoot -17.396 -18.4194
rtoes 0.169379
lfemur -50.2513 7.89278 -46.1606
ltibia 52.1835
lfoot -28.7582 3.09192
ltoes -17.9835
362
root 9.85568 14.5056 10.7213 57.3982 208.389 338.166
lowerback 25.3006 1.9086 4.07659
upperback 7.63412 2.65653 8.38722
thorax -5.77188 0.694544 6.19491
lowerneck -12.7222 -7.42084 -0.70374
upperneck -5.86665 -10.0053 6.10151
head 0.63235 -5.06879 1.5774
rclavicle -2.22639e-014 -6.91771e-014
rhumerus 39.7998 -18.369 -36.4519
rradius 25.7054
rwrist 3.7604
rhand -24.3237 -48.0994
rfingers 7.12502
rthumb 2.1647 -78.0682
lclavicle -2.22639e-014 -6.91771e-014
lhumerus 58.7768 49.7049 23.233
lradius 45.1223
lwrist -147.865
lhand -15.6766 -9.6794
lfingers 7.12502
lthumb 10.5121 20.0377
rfemur -85.6662 -12.9637 17.5042
rtibia 64.3814
rfoot -18.4324 -18.9965
rtoes 1.96406
lfemur -48.7767 8.76261 -45.6999
ltibia 52.9062
lfoot -29.382 3.37487
ltoes -15.8225
363
root 9.87098 14.3735 10.5271 58.8764 208.155 337.589
lowerback 25.94 2.01975 4.54763
upperback 7.48697 2.99456 8.53449
thorax -6.26074 0.852711 5.99649
lowerneck -12.7422 -7.48238 -0.822847
upperneck -6.36196 -10.0667 6.13068
head 0.485731 -5.11895 1.61371
rclavicle 1.33583e-013 4.77083e-015
rhumerus 41.3096 -19.5437 -37.1545
rradius 25.4735
rwrist 4.59499
rhand -24.9364 -47.9469
rfingers 7.12502
rthumb 1.57295 -77.9208
lclavicle 1.33583e-013 4.77083e-015
lhumerus 57.3448 49.0936 21.6097
lradius 46.7424
lwrist -149.617
lhand -16.2059 -8.6482
lfingers 7.12502
lthumb 10.0015 21.0942
rfemur -88.307 -13.3911 19.0808
rtibia 66.993
rfoot -19.1835 -19.3424
rtoes 4.69797
lfemur -47.7818 7.9441 -45.1597
ltibia 52.8519
lfoot -29.7143 3.764
ltoes -13.8425
364
root 9.88559 14.2443 10.3213 60.4355 207.913 336.983
lowerback 26.4288 2.14549 4.96847
upperback 7.3853 3.32517 8.72652
thorax -6.62557 1.00336 5.87497
lowerneck -13.1204 -7.4945 -0.936513
upperneck -6.70095 -10.0805 6.04817
head 0.439224 -5.14048 1.59971
rclavicle -1.08139e-013 -9.54166e-015
rhumerus 43.061 -21.0967 -38.1585
rradius 25.142
rwrist 5.73818
rhand -25.5467 -47.8115
rfingers 7.12502
rthumb 0.983513 -77.789
lclavicle -1.08139e-013 -9.54166e-015
lhumerus 55.3858 48.3434 19.1205
lradius 48.5597
lwrist -151.983
lhand -15.7322 -7.46898
lfingers 7.12502
lthumb 10.4585 22.2509
rfemur -90.6763 -13.5029 19.7614
rtibia 69.6325
rfoot -18.9965 -19.8377
rtoes 2.7165
lfemur -46.535 7.59476 -44.7246
ltibia 52.1338
lfoot -29.8327 3.84881
ltoes -9.63948
365
root 9.91536 14.1188 10.0646 60.796 207.29 336.915
lowerback 28.0355 2.63355 4.81127
upperback 7.55116 3.98995 8.90763
thorax -7.30398 1.2872 5.96492
lowerneck -14.336 -7.38395 -0.252208
upperneck -6.24427 -10.0784 5.16408
head 0.690914 -5.14437 1.15737
rclavicle 1.27222e-013 8.74653e-014
rhumerus 44.7323 -22.7704 -39.0221
rradius 24.7228
rwrist 6.39726
rhand -25.6052 -48.2922
rfingers 7.12502
rthumb 0.927092 -78.2699
lclavicle 1.27222e-013 8.74653e-014
lhumerus 53.1092 47.3958 15.9606
lradius 50.2204
lwrist -153.77
lhand -15.212 -5.77205
lfingers 7.12502
lthumb 10.9603 23.9219
rfemur -91.4141 -12.6744 19.3535
rtibia 72.1817
rfoot -19.8404 -20.4437
rtoes 0.368469
lfemur -44.1734 9.02121 -44.3427
ltibia 50.8098
lfoot -29.61 4.89094
ltoes -11.1593
